<svg width="64" height="60" viewBox="0 0 64 60" fill="none" xmlns="http://www.w3.org/2000/svg">
<g clip-path="url(#clip0_830_85)">
<path d="M47.7221 39.3718C47.6836 39.47 47.6161 39.5542 47.5285 39.6131C47.441 39.6721 47.3376 39.703 47.2321 39.7018C47.1223 39.6899 47.0189 39.644 46.9364 39.5705C46.8539 39.497 46.7965 39.3995 46.7721 39.2918L40.5821 13.2918L35.2821 31.8818C35.2515 31.9936 35.185 32.0923 35.0929 32.1628C35.0008 32.2332 34.8881 32.2715 34.7721 32.2718H31.0421L28.3321 39.3218C28.291 39.4251 28.219 39.5132 28.1259 39.574C28.0329 39.6349 27.9233 39.6655 27.8121 39.6618C27.7017 39.6551 27.5959 39.6152 27.5085 39.5474C27.4211 39.4796 27.3561 39.387 27.3221 39.2818L21.0621 18.2018L16.4521 32.0318C16.4132 32.1353 16.3434 32.2244 16.2522 32.287C16.161 32.3496 16.0528 32.3827 15.9421 32.3818H5.68213C5.86213 32.5918 6.06213 32.8018 6.26213 33.0018L32.4021 59.3918L57.6921 33.0018L58.1021 32.5518H50.5921L47.7221 39.3718Z" fill="#003974"/>
<path d="M55.4222 2.95177C49.5422 -0.938228 40.0022 -2.21823 32.4222 6.95177L32.3522 7.01177C32.3046 7.05347 32.2506 7.08724 32.1922 7.11177H32.0222C31.966 7.1221 31.9084 7.1221 31.8522 7.11177C31.7905 7.0942 31.735 7.05953 31.6922 7.01177C31.6922 7.01177 31.6422 6.96177 31.6122 6.95177C24.0222 -2.19823 14.4622 -0.918228 8.61222 2.95177C4.62521 5.48469 1.75328 9.44176 0.581003 14.0175C-0.59127 18.5933 0.024229 23.4438 2.30221 27.5818C3.00278 28.913 3.83708 30.1695 4.79221 31.3318H15.5622L20.5622 16.2618C20.6102 16.1638 20.682 16.0795 20.7712 16.0165C20.8603 15.9536 20.9638 15.9142 21.0722 15.9018C21.1844 15.9065 21.2924 15.9455 21.3818 16.0134C21.4712 16.0813 21.5376 16.175 21.5722 16.2818L27.8622 37.5318L30.1522 31.5918C30.1884 31.4892 30.2564 31.4009 30.3464 31.3397C30.4364 31.2785 30.5435 31.2477 30.6522 31.2518H34.3122L40.0722 11.0918C40.1092 10.9826 40.1791 10.8875 40.2721 10.8195C40.3652 10.7515 40.477 10.7139 40.5922 10.7118C40.7104 10.7149 40.8243 10.7567 40.9164 10.8307C41.0085 10.9048 41.0738 11.007 41.1022 11.1218L47.3722 37.4718L49.7522 31.8118C49.796 31.7189 49.8653 31.6403 49.9521 31.5854C50.0389 31.5305 50.1395 31.5015 50.2422 31.5018H59.0222C60.034 30.2953 60.9094 28.9806 61.6322 27.5818C63.9242 23.4566 64.5579 18.613 63.4041 14.0371C62.2504 9.46124 59.3961 5.49708 55.4222 2.95177Z" fill="#003974"/>
</g>
<defs>
<clipPath id="clip0_830_85">
<rect width="64" height="60" fill="white"/>
</clipPath>
</defs>
</svg>
