<svg width="90" height="90" viewBox="0 0 90 90" fill="none" xmlns="http://www.w3.org/2000/svg">
  <g clip-path="url(#clip0_830_79)">
    <mask id="mask0_830_79" style="mask-type:luminance" maskUnits="userSpaceOnUse" x="0" y="0"
      width="90" height="90">
      <path d="M90 0H0V90H90V0Z" fill="white" />
    </mask>
    <g mask="url(#mask0_830_79)">
      <path fillRule="evenodd" clipRule="evenodd"
        d="M47.87 0C66.428 1.168 81.932 13.584 87.644 30.509L65.441 36.458C62.473 29.283 55.836 24.011 47.87 22.979V0ZM45 27.571C35.426 27.571 27.665 35.332 27.665 44.906C27.665 54.48 35.426 62.241 45 62.241C54.574 62.241 62.335 54.48 62.335 44.906C62.335 35.332 54.574 27.571 45 27.571ZM46.457 51.723C48.262 51.21 49.525 49.551 49.525 47.665C49.525 45.343 47.63 43.448 45.308 43.448H44.691C43.978 43.448 43.389 42.859 43.389 42.146C43.389 41.433 43.978 40.844 44.691 40.844H45.56C45.996 40.844 46.364 41.037 46.619 41.39C47.091 42.041 48.001 42.186 48.651 41.715C49.301 41.244 49.447 40.333 48.976 39.683C48.372 38.848 47.462 38.254 46.457 38.03V37.031C46.457 36.226 45.804 35.574 45 35.574C44.195 35.574 43.543 36.227 43.543 37.031V38.091C41.738 38.604 40.475 40.263 40.475 42.149C40.475 44.471 42.37 46.366 44.692 46.366H45.309C46.022 46.366 46.611 46.955 46.611 47.668C46.611 48.381 46.022 48.97 45.309 48.97H44.44C44.004 48.97 43.636 48.777 43.381 48.424C42.909 47.773 41.999 47.628 41.349 48.099C40.699 48.57 40.553 49.481 41.024 50.131C41.628 50.966 42.538 51.56 43.543 51.784V52.783C43.543 53.588 44.196 54.24 45 54.24C45.805 54.24 46.457 53.587 46.457 52.783V51.723ZM45 30.73C37.171 30.73 30.824 37.077 30.824 44.906C30.824 52.735 37.171 59.082 45 59.082C52.829 59.082 59.176 52.735 59.176 44.906C59.176 37.077 52.829 30.73 45 30.73ZM45 33.645C38.78 33.645 33.739 38.687 33.739 44.906C33.739 51.125 38.78 56.168 45 56.168C51.22 56.168 56.262 51.126 56.262 44.906C56.262 38.686 51.22 33.645 45 33.645ZM89.128 36.053L66.922 42.003C67.047 42.953 67.112 43.922 67.112 44.906C67.112 47.91 66.512 50.775 65.426 53.386L85.331 64.878C88.319 58.86 90 52.08 90 44.906C90 41.876 89.699 38.916 89.128 36.053ZM82.459 69.847C76.991 78.043 68.906 84.342 59.398 87.552L53.448 65.347C57.067 63.849 60.202 61.418 62.553 58.354L82.459 69.847ZM53.853 89.034C50.991 89.605 48.03 89.906 45 89.906C25.183 89.906 8.357 77.096 2.353 59.304L24.56 53.354C27.879 61.375 35.78 67.019 45 67.019C45.984 67.019 46.953 66.954 47.903 66.83L53.853 89.034ZM0.873 53.759C0.302 50.896 0 47.937 0 44.906C0 21.018 18.615 1.48 42.13 0V22.979C31.273 24.386 22.887 33.667 22.887 44.907C22.887 45.891 22.952 46.86 23.077 47.81L0.873 53.759Z"
        fill="#003974" />
    </g>
  </g>
  <defs>
    <clipPath id="clip0_830_79">
      <rect width="90" height="90" fill="white" />
    </clipPath>
  </defs>
</svg>