<svg width="48" height="48" viewBox="0 0 48 48" fill="none" xmlns="http://www.w3.org/2000/svg">
<g clip-path="url(#clip0_830_70)">
<path d="M45 0H3C1.3 0 0 1.3 0 3V42.6C0 44.3 1.3 45.6 3 45.6H8.2V48H13.5V45.6H34.5V48H39.8V45.6H45C46.7 45.6 48 44.3 48 42.6V3C48 1.3 46.7 0 45 0ZM44 40.6C44 41.2 43.6 41.6 43 41.6H5.6C5 41.6 4.6 41.2 4.6 40.6V32.4H2.8C2 32.4 1.3 31.7 1.3 30.9C1.3 30.1 2 29.4 2.8 29.4H4.6V16.2H2.8C2 16.2 1.3 15.5 1.3 14.7C1.3 13.9 2 13.2 2.8 13.2H4.6V5C4.6 4.4 5 4 5.6 4H43C43.6 4 44 4.4 44 5V40.6Z" fill="#003974"/>
<path d="M9.0998 14.7C9.0998 14.4 8.8998 14.2 8.5998 14.2H2.7998C2.4998 14.2 2.2998 14.4 2.2998 14.7C2.2998 15 2.4998 15.2 2.7998 15.2H8.5998C8.8998 15.2 9.0998 15 9.0998 14.7Z" fill="#003974"/>
<path d="M9.0998 30.8C9.0998 30.5 8.8998 30.3 8.5998 30.3H2.7998C2.4998 30.3 2.2998 30.5 2.2998 30.8C2.2998 31.1 2.4998 31.3 2.7998 31.3H8.5998C8.8998 31.3 9.0998 31.1 9.0998 30.8Z" fill="#003974"/>
<path d="M23.3002 20.2999V17.7C21.2002 18.1 19.6002 19.6999 19.2002 21.7999H21.8002C22.1002 21.0999 22.6002 20.5999 23.3002 20.2999Z" fill="#003974"/>
<path d="M23.3002 27.9V25.3C22.6002 25 22.1002 24.5 21.8002 23.8H19.2002C19.6002 25.8 21.2002 27.5 23.3002 27.9Z" fill="#003974"/>
<path d="M26.7998 21.7999H29.3998C28.9998 19.6999 27.3998 18.1 25.2998 17.7V20.2999C25.9998 20.5999 26.4998 21.0999 26.7998 21.7999Z" fill="#003974"/>
<path d="M6.6001 13.2H8.6001C9.4001 13.2 10.1001 13.9 10.1001 14.7C10.1001 15.5 9.4001 16.2 8.6001 16.2H6.6001V29.3H8.6001C9.4001 29.3 10.1001 30 10.1001 30.8C10.1001 31.6 9.4001 32.3 8.6001 32.3H6.6001V39.5H42.0001V6H6.6001V13.2ZM16.0001 21.8H17.2001C17.6001 18.6 20.1001 16.1 23.3001 15.7V14.5C23.3001 13.9 23.7001 13.5 24.3001 13.5C24.9001 13.5 25.3001 13.9 25.3001 14.5V15.7C28.5001 16.1 31.0001 18.6 31.4001 21.8H32.6001C33.2001 21.8 33.6001 22.2 33.6001 22.8C33.6001 23.4 33.2001 23.8 32.6001 23.8H31.4001C31.0001 27 28.5001 29.5 25.3001 29.9V31.1C25.3001 31.7 24.9001 32.1 24.3001 32.1C23.7001 32.1 23.3001 31.7 23.3001 31.1V29.9C20.1001 29.5 17.6001 27 17.2001 23.8H16.0001C15.4001 23.8 15.0001 23.4 15.0001 22.8C15.0001 22.2 15.5001 21.8 16.0001 21.8Z" fill="#003974"/>
<path d="M29.3998 23.8H26.7998C26.4998 24.5 25.9998 25 25.2998 25.3V27.9C27.3998 27.5 28.9998 25.8 29.3998 23.8Z" fill="#003974"/>
</g>
<defs>
<clipPath id="clip0_830_70">
<rect width="48" height="48" fill="white"/>
</clipPath>
</defs>
</svg>
