<svg width="91" height="91" viewBox="0 0 91 91" fill="none" xmlns="http://www.w3.org/2000/svg">
<path d="M36.1238 17.8209L53.2359 0.708731C53.4239 0.520761 53.6788 0.415161 53.9446 0.415161C54.2105 0.415161 54.4654 0.52076 54.6534 0.708729L89.7063 35.7616C89.8942 35.9496 89.9998 36.2045 89.9998 36.4704C89.9998 36.7362 89.8942 36.9911 89.7062 37.1791L72.5942 54.2912C72.4062 54.4792 72.1512 54.5848 71.8854 54.5848C71.6196 54.5848 71.3646 54.4792 71.1766 54.2912L36.1238 19.2383C35.9358 19.0504 35.8302 18.7954 35.8302 18.5296C35.8302 18.2638 35.9358 18.0088 36.1238 17.8209Z" fill="#003974"/>
<path d="M82.5304 16.3649C82.6231 16.2722 82.6966 16.1621 82.7468 16.041C82.797 15.9199 82.8228 15.79 82.8228 15.6589C82.8228 15.5278 82.797 15.398 82.7468 15.2769C82.6966 15.1558 82.6231 15.0457 82.5304 14.953L75.4623 7.88489C75.3696 7.79218 75.2595 7.71864 75.1384 7.66847C75.0173 7.61829 74.8875 7.59247 74.7563 7.59247C74.6252 7.59247 74.4954 7.61829 74.3743 7.66847C74.2532 7.71864 74.1431 7.79218 74.0504 7.88489L70.7686 11.1668L79.2486 19.6468L82.5304 16.3649Z" fill="#003974"/>
<path d="M10.2362 88.6588L55.062 43.8332L46.582 35.3532L1.75627 80.1788C0.631748 81.3034 0 82.8285 0 84.4188C0 86.0091 0.631748 87.5343 1.75627 88.6588C2.88078 89.7834 4.40596 90.4151 5.99627 90.4151C7.58657 90.4151 9.11173 89.7833 10.2362 88.6588Z" fill="#003974"/>
</svg>
