<svg width="89" height="89" viewBox="0 0 89 89" fill="none" xmlns="http://www.w3.org/2000/svg">
  <g clip-path="url(#clip0_830_64)">
    <path fillRule="evenodd" clipRule="evenodd"
      d="M88.64 53.5362C88.64 43.3262 77.62 31.3662 70.33 23.4462C69.96 23.0462 69.59 22.6462 69.25 22.2662H56.55C56.19 22.6462 55.84 23.0462 55.47 23.4462C48.17 31.3662 37.15 43.3262 37.15 53.5362C37.15 58.2662 38.53 62.8262 41.12 66.7962C46.57 63.6962 51.54 62.1762 56.56 62.0562C56.57 62.0562 56.58 62.0562 56.59 62.0562H60.47C63.25 62.0562 65.51 64.3162 65.51 67.0962C65.51 69.4562 63.83 71.2262 60.78 72.0962L55.17 73.6962C53.76 74.0962 53.04 74.7262 53.04 75.5462C53.04 76.5462 53.85 77.3562 54.85 77.3562H71.31C77.11 77.3562 80.73 71.9462 82.75 67.4062C83.29 66.2062 84.39 65.3862 85.67 65.1462C87.61 61.5862 88.64 57.5862 88.64 53.5362ZM64.06 39.0362C65.85 39.3662 67.36 40.5262 67.96 42.1362C68.18 42.7362 67.88 43.4062 67.28 43.6362C66.68 43.8662 66.01 43.5562 65.79 42.9662C65.41 41.9662 64.26 41.2662 63 41.2662C61.41 41.2662 60.08 42.3662 60.08 43.6662C60.08 44.3562 60.37 45.1862 61.19 45.4662L63.27 46.1762C63.29 46.1862 63.31 46.1862 63.33 46.1962L65.88 47.2162C67.23 47.7562 68.04 49.1262 68.04 50.8962C68.04 53.1062 66.34 54.9662 64.06 55.4762V57.9262C64.06 58.5662 63.54 59.0862 62.9 59.0862C62.26 59.0862 61.74 58.5662 61.74 57.9262V55.5162C59.95 55.1862 58.44 54.0262 57.84 52.4162C57.61 51.8162 57.91 51.1462 58.51 50.9162C59.11 50.6862 59.78 50.9962 60.01 51.5862C60.39 52.5862 61.54 53.2862 62.8 53.2862C64.38 53.2862 65.72 52.1862 65.72 50.8862C65.72 50.5962 65.67 49.6262 65.02 49.3662L62.5 48.3562L60.44 47.6462C58.81 47.0862 57.75 45.5162 57.75 43.6462C57.75 41.4362 59.45 39.5762 61.73 39.0662V36.6162C61.73 35.9762 62.25 35.4562 62.89 35.4562C63.53 35.4562 64.05 35.9762 64.05 36.6162V39.0362H64.06ZM57.42 19.9462H68.37V16.1262H57.42V19.9462ZM58.35 0.0161779C59.13 5.03618 60.83 9.55618 63.53 13.8062H68.87C70.66 10.7662 71.71 7.37618 72.06 3.51618C68.03 1.01618 63.42 -0.153822 58.35 0.0161779ZM60.81 13.8062C59.08 10.8462 57.77 7.68618 56.89 4.36618C54.87 3.55618 52.9 3.85618 50.66 5.30618C52.16 8.53618 54.2 11.3962 56.72 13.8062H60.81ZM26.08 59.1262V30.5662H31.82C32.25 30.5662 32.64 30.3362 32.85 29.9562C33.05 29.5762 33.03 29.1262 32.79 28.7662L20.23 9.63618C20.02 9.30618 19.65 9.11618 19.26 9.11618C18.86 9.11618 18.5 9.31618 18.29 9.63618L5.73 28.7662C5.49 29.1262 5.47 29.5762 5.67 29.9562C5.88 30.3362 6.27 30.5662 6.69 30.5662H12.44V54.7162C12.44 55.3562 12.95 55.8762 13.6 55.8762C14.24 55.8762 14.76 55.3562 14.76 54.7162V29.4062C14.76 28.7662 14.24 28.2462 13.6 28.2462H8.85L19.26 12.3862L29.67 28.2462H24.92C24.28 28.2462 23.76 28.7662 23.76 29.4062V59.1262C23.76 59.7662 24.28 60.2862 24.92 60.2862C25.56 60.2862 26.08 59.7662 26.08 59.1262ZM38.14 70.2062L30.67 68.7762V88.6262H38.14V70.2062ZM40.45 69.8862V88.6262L69.34 88.6362C72.53 88.6362 78.6 85.7462 82.86 81.0762C85.36 78.3362 88.23 73.9062 87.71 68.3262C87.65 67.6662 87.08 67.4762 86.75 67.4262C86.09 67.3162 85.23 67.5662 84.88 68.3562C81.58 75.7662 76.9 79.6862 71.32 79.6862H54.85C52.57 79.6862 50.72 77.8362 50.72 75.5562C50.72 74.4362 51.22 72.4162 54.54 71.4662L60.15 69.8662C62.17 69.2962 63.19 68.3662 63.19 67.0962C63.19 65.5962 61.97 64.3762 60.47 64.3762H56.6C51.44 64.5062 46.29 66.2562 40.45 69.8862ZM28.34 88.6262V68.3362L0 62.9262V88.6362H28.34V88.6262Z"
      fill="#003974" />
  </g>
  <defs>
    <clipPath id="clip0_830_64">
      <rect width="89" height="89" fill="white" />
    </clipPath>
  </defs>
</svg>