<svg width="89" height="42" viewBox="0 0 89 42" fill="none" xmlns="http://www.w3.org/2000/svg">
<path d="M81.6805 11.41C81.2005 11.04 80.6205 10.86 80.0605 10.86C79.2705 10.86 78.4905 11.21 77.9705 11.88C77.0705 13.03 77.2705 14.69 78.4305 15.59L84.2705 20.14C85.4205 21.04 87.0905 20.83 87.9805 19.68C88.8805 18.53 88.6805 16.87 87.5205 15.97L81.6805 11.41Z" fill="#4B4B4B"/>
<path d="M67.67 21.8101C67.22 21.8101 66.75 21.9301 66.33 22.1801C65.07 22.9201 64.66 24.5401 65.4 25.8001L69.18 32.1801C69.92 33.4301 71.54 33.8501 72.8 33.1101C74.06 32.3701 74.47 30.7401 73.73 29.4901L69.95 23.1201C69.45 22.2701 68.57 21.8101 67.67 21.8101Z" fill="#4B4B4B"/>
<path d="M51.372 29.16C51.222 29.16 51.072 29.18 50.912 29.21C49.472 29.47 48.512 30.84 48.772 32.27L50.082 39.57C50.342 41.01 51.712 41.96 53.152 41.7C54.582 41.44 55.542 40.08 55.282 38.64L53.972 31.35C53.742 30.05 52.632 29.16 51.372 29.16Z" fill="#4B4B4B"/>
<path d="M35.7023 29.16C34.4423 29.16 33.3323 30.06 33.1023 31.35L31.8023 38.64C31.5423 40.08 32.5023 41.44 33.9323 41.7C35.3723 41.96 36.7423 41.01 37.0023 39.57L38.3123 32.27C38.5723 30.84 37.6123 29.47 36.1823 29.21C36.0123 29.18 35.8623 29.16 35.7023 29.16Z" fill="#4B4B4B"/>
<path d="M20.8724 23.6801C19.9724 23.6801 19.0924 24.1401 18.5924 24.9801L14.8124 31.3501C14.0624 32.6101 14.4924 34.2301 15.7424 34.9701C17.0024 35.7101 18.6224 35.2901 19.3624 34.0401L23.1324 27.6601C23.8824 26.4001 23.4724 24.7901 22.2124 24.0401C21.7924 23.8001 21.3324 23.6801 20.8724 23.6801Z" fill="#4B4B4B"/>
<path d="M4.26189 22L10.1019 17.45C11.2519 16.55 11.4519 14.9 10.5619 13.74C10.0419 13.08 9.26189 12.72 8.48189 12.72C7.92189 12.72 7.35189 12.9 6.86189 13.27L1.01189 17.83C-0.128114 18.73 -0.338113 20.38 0.551887 21.54C1.45189 22.69 3.11189 22.9 4.26189 22Z" fill="#4B4B4B"/>
<path d="M72.3523 0C67.3623 8.9 57.1023 18.78 43.5423 18.78C29.9823 18.78 19.7123 8.9 14.7423 0.0100002L10.0723 2.48C17.3323 15.63 30.3623 24.06 43.5423 24.06C56.7123 24.06 69.7523 15.63 77.0223 2.48L72.3523 0Z" fill="#4B4B4B"/>
</svg>
