<svg width="47" height="26" viewBox="0 0 47 26" fill="none" xmlns="http://www.w3.org/2000/svg">
<path d="M44.9059 16.38C44.4762 16.3785 44.0583 16.2386 43.7143 15.981C43.3703 15.7235 43.1184 15.3619 42.9959 14.95C42.8559 14.52 39.3959 4 23.4559 4C7.51591 4 4.05591 14.52 3.91591 15C3.76208 15.5079 3.4128 15.9339 2.9449 16.1842C2.47699 16.4346 1.9288 16.4888 1.42091 16.335C0.91302 16.1812 0.487039 15.8319 0.236678 15.364C-0.0136834 14.8961 -0.0679162 14.3479 0.0859093 13.84C0.255909 13.24 4.45591 0 23.4559 0C42.4559 0 46.6559 13.24 46.8259 13.81C46.9008 14.0634 46.9247 14.3292 46.8962 14.5919C46.8677 14.8547 46.7875 15.1091 46.6601 15.3407C46.5327 15.5722 46.3607 15.7762 46.154 15.9409C45.9473 16.1055 45.7101 16.2276 45.4559 16.3C45.2764 16.3486 45.0918 16.3755 44.9059 16.38ZM33.3359 15.88C33.3379 13.9255 32.7601 12.0143 31.6757 10.3882C30.5913 8.76217 29.0489 7.49427 27.2438 6.74494C25.4386 5.99561 23.4517 5.79853 21.5346 6.17862C19.6174 6.55872 17.856 7.4989 16.4732 8.88025C15.0905 10.2616 14.1485 12.022 13.7665 13.9388C13.3845 15.8556 13.5795 17.8427 14.327 19.6486C15.0745 21.4545 16.3409 22.9982 17.9658 24.0842C19.5908 25.1703 21.5014 25.75 23.4559 25.75C26.0737 25.7474 28.5837 24.707 30.4357 22.8568C32.2877 21.0067 33.3306 18.4978 33.3359 15.88ZM29.3359 15.88C29.3359 17.043 28.9911 18.1798 28.345 19.1468C27.6988 20.1137 26.7805 20.8674 25.7061 21.3124C24.6317 21.7575 23.4494 21.8739 22.3088 21.647C21.1682 21.4201 20.1205 20.8601 19.2981 20.0378C18.4758 19.2155 17.9158 18.1677 17.6889 17.0271C17.462 15.8865 17.5785 14.7042 18.0235 13.6298C18.4685 12.5554 19.2222 11.6371 20.1892 10.991C21.1561 10.3449 22.293 10 23.4559 10C25.0154 10 26.511 10.6195 27.6137 11.7222C28.7164 12.8249 29.3359 14.3205 29.3359 15.88Z" fill="#4B4B4B"/>
</svg>
