<svg width="98" height="114" viewBox="0 0 98 114" fill="none" xmlns="http://www.w3.org/2000/svg">
<path d="M93 0H33C31.6741 0.000477079 30.4026 0.527414 29.465 1.46499C28.5274 2.40257 28.0005 3.67406 28 5V68H23C16.9 68 11.0499 70.4232 6.73654 74.7365C2.42321 79.0499 0 84.9 0 91C0 97.1 2.42321 102.95 6.73654 107.263C11.0499 111.577 16.9 114 23 114H31C31.56 114 32.12 113.97 32.67 113.93C32.7745 113.974 32.8865 113.998 33 114H93C94.3259 114 95.5974 113.473 96.535 112.535C97.4726 111.597 97.9995 110.326 98 109V5C97.9995 3.67406 97.4726 2.40257 96.535 1.46499C95.5974 0.527414 94.3259 0.000477079 93 0ZM37 10C37.0008 9.73502 37.1064 9.48111 37.2937 9.29374C37.4811 9.10637 37.735 9.00077 38 9H88C88.265 9.00077 88.5189 9.10637 88.7063 9.29374C88.8936 9.48111 88.9992 9.73502 89 10V26C88.9992 26.265 88.8936 26.5189 88.7063 26.7063C88.5189 26.8936 88.265 26.9992 88 27H38C37.735 26.9992 37.4811 26.8936 37.2937 26.7063C37.1064 26.5189 37.0008 26.265 37 26V10ZM37 38C37.0008 37.735 37.1064 37.4811 37.2937 37.2937C37.4811 37.1064 37.735 37.0008 38 37H44C44.265 37.0008 44.5189 37.1064 44.7063 37.2937C44.8936 37.4811 44.9992 37.735 45 38V44C44.9992 44.265 44.8936 44.5189 44.7063 44.7063C44.5189 44.8936 44.265 44.9992 44 45H38C37.735 44.9992 37.4811 44.8936 37.2937 44.7063C37.1064 44.5189 37.0008 44.265 37 44V38ZM37 52C37.0008 51.735 37.1064 51.4811 37.2937 51.2937C37.4811 51.1064 37.735 51.0008 38 51H44C44.265 51.0008 44.5189 51.1064 44.7063 51.2937C44.8936 51.4811 44.9992 51.735 45 52V58C44.9992 58.265 44.8936 58.5189 44.7063 58.7063C44.5189 58.8936 44.265 58.9992 44 59H38C37.735 58.9992 37.4811 58.8936 37.2937 58.7063C37.1064 58.5189 37.0008 58.265 37 58V52ZM37 66C37.0008 65.735 37.1064 65.4811 37.2937 65.2937C37.4811 65.1064 37.735 65.0008 38 65H44C44.265 65.0008 44.5189 65.1064 44.7063 65.2937C44.8936 65.4811 44.9992 65.735 45 66V72C44.9993 72.2179 44.9253 72.4292 44.79 72.6C42.459 70.8488 39.815 69.559 37 68.8V66ZM45.67 76C46.6095 76.9175 47.46 77.922 48.21 79H42.61C41.9585 77.9425 41.2228 76.9392 40.41 76H45.67ZM49.46 81C49.9796 81.9617 50.4178 82.9652 50.77 84H44.91C44.5829 82.9723 44.1819 81.9697 43.71 81H49.46ZM51 72V66C51.0008 65.735 51.1064 65.4811 51.2937 65.2937C51.4811 65.1064 51.735 65.0008 52 65H58C58.265 65.0008 58.5189 65.1064 58.7063 65.2937C58.8936 65.4811 58.9992 65.735 59 66V72C58.9992 72.265 58.8936 72.5189 58.7063 72.7063C58.5189 72.8936 58.265 72.9992 58 73H52C51.735 72.9992 51.4811 72.8936 51.2937 72.7063C51.1064 72.5189 51.0008 72.265 51 72ZM59 58C58.9992 58.265 58.8936 58.5189 58.7063 58.7063C58.5189 58.8936 58.265 58.9992 58 59H52C51.735 58.9992 51.4811 58.8936 51.2937 58.7063C51.1064 58.5189 51.0008 58.265 51 58V52C51.0008 51.735 51.1064 51.4811 51.2937 51.2937C51.4811 51.1064 51.735 51.0008 52 51H58C58.265 51.0008 58.5189 51.1064 58.7063 51.2937C58.8936 51.4811 58.9992 51.735 59 52V58ZM59 44C58.9992 44.265 58.8936 44.5189 58.7063 44.7063C58.5189 44.8936 58.265 44.9992 58 45H52C51.735 44.9992 51.4811 44.8936 51.2937 44.7063C51.1064 44.5189 51.0008 44.265 51 44V38C51.0008 37.735 51.1064 37.4811 51.2937 37.2937C51.4811 37.1064 51.735 37.0008 52 37H58C58.265 37.0008 58.5189 37.1064 58.7063 37.2937C58.8936 37.4811 58.9992 37.735 59 38V44ZM51.37 86C51.6186 86.9859 51.7957 87.9886 51.9 89H45.91C45.8184 87.9915 45.6648 86.9896 45.45 86H51.37ZM46 91H52C51.9912 92.0044 51.911 93.007 51.76 94H45.8C45.9326 93.0055 45.9994 92.0033 46 91ZM51.33 80.26C51.5144 80.0949 51.7525 80.0025 52 80H58C58.265 80.0008 58.5189 80.1064 58.7063 80.2937C58.8936 80.4811 58.9992 80.735 59 81V87C58.9992 87.265 58.8936 87.5189 58.7063 87.7063C58.5189 87.8936 58.265 87.9992 58 88H53.8C53.4483 85.2926 52.6116 82.6707 51.33 80.26ZM73 44C72.9992 44.265 72.8936 44.5189 72.7063 44.7063C72.5189 44.8936 72.265 44.9992 72 45H66C65.735 44.9992 65.4811 44.8936 65.2937 44.7063C65.1064 44.5189 65.0008 44.265 65 44V38C65.0008 37.735 65.1064 37.4811 65.2937 37.2937C65.4811 37.1064 65.735 37.0008 66 37H72C72.265 37.0008 72.5189 37.1064 72.7063 37.2937C72.8936 37.4811 72.9992 37.735 73 38V44ZM65 52C65.0008 51.735 65.1064 51.4811 65.2937 51.2937C65.4811 51.1064 65.735 51.0008 66 51H72C72.265 51.0008 72.5189 51.1064 72.7063 51.2937C72.8936 51.4811 72.9992 51.735 73 52V58C72.9992 58.265 72.8936 58.5189 72.7063 58.7063C72.5189 58.8936 72.265 58.9992 72 59H66C65.735 58.9992 65.4811 58.8936 65.2937 58.7063C65.1064 58.5189 65.0008 58.265 65 58V52ZM65 66C65.0008 65.735 65.1064 65.4811 65.2937 65.2937C65.4811 65.1064 65.735 65.0008 66 65H72C72.265 65.0008 72.5189 65.1064 72.7063 65.2937C72.8936 65.4811 72.9992 65.735 73 66V72C72.9992 72.265 72.8936 72.5189 72.7063 72.7063C72.5189 72.8936 72.265 72.9992 72 73H66C65.735 72.9992 65.4811 72.8936 65.2937 72.7063C65.1064 72.5189 65.0008 72.265 65 72V66ZM89 72C88.9992 72.265 88.8936 72.5189 88.7063 72.7063C88.5189 72.8936 88.265 72.9992 88 73H80C79.735 72.9992 79.4811 72.8936 79.2937 72.7063C79.1064 72.5189 79.0008 72.265 79 72V52C79.0008 51.735 79.1064 51.4811 79.2937 51.2937C79.4811 51.1064 79.735 51.0008 80 51H88C88.265 51.0008 88.5189 51.1064 88.7063 51.2937C88.8936 51.4811 88.9992 51.735 89 52V72ZM89 44C88.9992 44.265 88.8936 44.5189 88.7063 44.7063C88.5189 44.8936 88.265 44.9992 88 45H80C79.735 44.9992 79.4811 44.8936 79.2937 44.7063C79.1064 44.5189 79.0008 44.265 79 44V38C79.0008 37.735 79.1064 37.4811 79.2937 37.2937C79.4811 37.1064 79.735 37.0008 80 37H88C88.265 37.0008 88.5189 37.1064 88.7063 37.2937C88.8936 37.4811 88.9992 37.735 89 38V44ZM89 87C88.9992 87.265 88.8936 87.5189 88.7063 87.7063C88.5189 87.8936 88.265 87.9992 88 88H66C65.735 87.9992 65.4811 87.8936 65.2937 87.7063C65.1064 87.5189 65.0008 87.265 65 87V81C65.0008 80.735 65.1064 80.4811 65.2937 80.2937C65.4811 80.1064 65.735 80.0008 66 80H88C88.265 80.0008 88.5189 80.1064 88.7063 80.2937C88.8936 80.4811 88.9992 80.735 89 81V87ZM43.28 74H38.48C36.7115 72.3932 34.7043 71.0708 32.53 70.08C36.4086 70.3595 40.1319 71.7173 43.28 74ZM30.07 98.77C29.0747 99.7632 27.7895 100.415 26.4 100.63V100.9C26.3977 101.695 26.0809 102.457 25.5188 103.019C24.9567 103.581 24.1949 103.898 23.4 103.9H22.6C21.8051 103.898 21.0433 103.581 20.4812 103.019C19.9191 102.457 19.6023 101.695 19.6 100.9V100.62C18.6763 100.481 17.7927 100.147 17.0082 99.6403C16.2236 99.1334 15.5561 98.4651 15.05 97.68C14.7625 97.238 14.6012 96.7259 14.5836 96.1989C14.566 95.672 14.6927 95.1502 14.95 94.69C15.2088 94.2097 15.5926 93.8084 16.0609 93.5285C16.5292 93.2485 17.0644 93.1005 17.61 93.1C18.1 93.0932 18.5839 93.2095 19.0172 93.4384C19.4506 93.6673 19.8194 94.0014 20.09 94.41C20.1428 94.4982 20.2175 94.5713 20.3068 94.6221C20.3962 94.6729 20.4972 94.6998 20.6 94.7H25.4C25.4882 94.6995 25.5751 94.6795 25.6546 94.6415C25.7341 94.6035 25.8043 94.5483 25.86 94.48C25.9182 94.414 25.9603 94.3354 25.9828 94.2503C26.0054 94.1653 26.0078 94.0762 25.99 93.99C25.9464 93.8429 25.8547 93.7146 25.7296 93.6258C25.6045 93.537 25.4533 93.4927 25.3 93.5H20.86C19.92 93.4986 18.99 93.3074 18.1257 92.938C17.2614 92.5686 16.4806 92.0284 15.83 91.35C15.2204 90.7272 14.7444 89.9864 14.4315 89.173C14.1185 88.3596 13.9751 87.4908 14.01 86.62C14.0716 85.0914 14.6631 83.6318 15.683 82.4915C16.7029 81.3511 18.0877 80.6011 19.6 80.37V80.1C19.6023 79.3051 19.9191 78.5434 20.4812 77.9812C21.0433 77.4191 21.8051 77.1023 22.6 77.1H23.4C24.1949 77.1023 24.9567 77.4191 25.5188 77.9812C26.0809 78.5434 26.3977 79.3051 26.4 80.1V80.38C27.3237 80.5188 28.2073 80.8527 28.9918 81.3597C29.7764 81.8666 30.4439 82.5349 30.95 83.32C31.2375 83.762 31.3988 84.2741 31.4164 84.8011C31.434 85.328 31.3073 85.8498 31.05 86.31C30.7912 86.7903 30.4074 87.1916 29.9391 87.4715C29.4708 87.7515 28.9356 87.8995 28.39 87.9C27.9 87.9068 27.4161 87.7905 26.9828 87.5616C26.5494 87.3327 26.1806 86.9986 25.91 86.59C25.8572 86.5018 25.7825 86.4287 25.6932 86.3779C25.6038 86.3271 25.5028 86.3002 25.4 86.3H20.6C20.5118 86.3005 20.4249 86.3205 20.3454 86.3585C20.2659 86.3965 20.1957 86.4517 20.14 86.52C20.0818 86.586 20.0397 86.6646 20.0172 86.7497C19.9946 86.8347 19.9922 86.9238 20.01 87.01C20.0536 87.1571 20.1453 87.2854 20.2704 87.3742C20.3955 87.463 20.5467 87.5073 20.7 87.5H25.14C26.08 87.5014 27.01 87.6926 27.8743 88.062C28.7386 88.4314 29.5194 88.9716 30.17 89.65C30.7796 90.2728 31.2556 91.0136 31.5685 91.827C31.8815 92.6404 32.0249 93.5092 31.99 94.38C31.9224 96.0321 31.2372 97.5988 30.07 98.77ZM32.53 111.92C35.553 110.538 38.2412 108.519 40.41 106H45.67C42.1293 109.467 37.4729 111.565 32.53 111.92ZM47.46 104H41.96C42.6165 103.045 43.2015 102.042 43.71 101H49.46C48.8847 102.058 48.2153 103.062 47.46 104ZM44.56 99C44.9242 98.0213 45.2216 97.019 45.45 96H51.37C51.1287 97.0235 50.8077 98.0266 50.41 99H44.56ZM89 102C88.9992 102.265 88.8936 102.519 88.7063 102.706C88.5189 102.894 88.265 102.999 88 103H52C51.7808 102.999 51.5683 102.924 51.3962 102.788C51.2241 102.652 51.1023 102.463 51.05 102.25C52.3219 99.9994 53.198 97.5471 53.64 95H88C88.265 95.0008 88.5189 95.1064 88.7063 95.2937C88.8936 95.4811 88.9992 95.735 89 96V102ZM28.73 91.04C28.2654 90.5557 27.7082 90.1698 27.0915 89.9053C26.4747 89.6407 25.8111 89.5029 25.14 89.5H20.7C20.0739 89.5082 19.4648 89.2965 18.9788 88.9018C18.4927 88.5071 18.1605 87.9544 18.04 87.34C17.9764 86.9671 17.9949 86.5847 18.0942 86.2197C18.1935 85.8546 18.3711 85.5156 18.6148 85.2262C18.8585 84.9368 19.1624 84.704 19.5052 84.544C19.8481 84.3841 20.2217 84.3008 20.6 84.3H25.4C25.8401 84.2999 26.273 84.4118 26.6579 84.6252C27.0428 84.8387 27.367 85.1466 27.6 85.52C27.6891 85.6446 27.8082 85.7448 27.9463 85.8112C28.0844 85.8777 28.237 85.9082 28.39 85.9C28.5752 85.9017 28.7573 85.8521 28.9161 85.7568C29.0749 85.6615 29.2043 85.5242 29.29 85.36C29.3728 85.2128 29.4146 85.0461 29.4111 84.8773C29.4075 84.7084 29.3588 84.5436 29.27 84.4C28.8509 83.7554 28.2773 83.2256 27.6015 82.8589C26.9257 82.4922 26.1689 82.3 25.4 82.3C25.135 82.2992 24.8811 82.1936 24.6937 82.0063C24.5064 81.8189 24.4008 81.565 24.4 81.3V80.1C24.3992 79.835 24.2936 79.5811 24.1063 79.3937C23.9189 79.2064 23.665 79.1008 23.4 79.1H22.6C22.335 79.1008 22.0811 79.2064 21.8937 79.3937C21.7064 79.5811 21.6008 79.835 21.6 80.1V81.3C21.5992 81.565 21.4936 81.8189 21.3063 82.0063C21.1189 82.1936 20.865 82.2992 20.6 82.3C19.4152 82.3033 18.277 82.7619 17.4208 83.5808C16.5646 84.3998 16.0559 85.5165 16 86.7C15.9777 87.3013 16.0789 87.9008 16.2974 88.4615C16.5158 89.0222 16.8468 89.5322 17.27 89.96C17.7346 90.4443 18.2918 90.8302 18.9085 91.0947C19.5253 91.3593 20.1889 91.4971 20.86 91.5H25.3C25.9261 91.4918 26.5352 91.7035 27.0212 92.0982C27.5073 92.4929 27.8395 93.0456 27.96 93.66C28.0236 94.0329 28.0051 94.4153 27.9058 94.7803C27.8065 95.1454 27.6289 95.4844 27.3852 95.7738C27.1415 96.0632 26.8376 96.296 26.4948 96.456C26.1519 96.6159 25.7783 96.6992 25.4 96.7H20.6C20.1599 96.7001 19.727 96.5882 19.3421 96.3748C18.9572 96.1613 18.633 95.8534 18.4 95.48C18.3109 95.3554 18.1918 95.2552 18.0537 95.1888C17.9156 95.1223 17.763 95.0918 17.61 95.1C17.4248 95.0983 17.2427 95.1479 17.0839 95.2432C16.9251 95.3385 16.7957 95.4758 16.71 95.64C16.6272 95.7872 16.5854 95.9539 16.5889 96.1227C16.5925 96.2916 16.6412 96.4564 16.73 96.6C17.1491 97.2446 17.7227 97.7744 18.3985 98.1411C19.0743 98.5078 19.8311 98.7 20.6 98.7C20.865 98.7008 21.1189 98.8064 21.3063 98.9937C21.4936 99.1811 21.5992 99.435 21.6 99.7V100.9C21.6008 101.165 21.7064 101.419 21.8937 101.606C22.0811 101.794 22.335 101.899 22.6 101.9H23.4C23.665 101.899 23.9189 101.794 24.1063 101.606C24.2936 101.419 24.3992 101.165 24.4 100.9V99.7C24.4008 99.435 24.5064 99.1811 24.6937 98.9937C24.8811 98.8064 25.135 98.7008 25.4 98.7C26.5848 98.6967 27.723 98.2381 28.5792 97.4192C29.4354 96.6002 29.9441 95.4835 30 94.3C30.0223 93.6987 29.9211 93.0992 29.7026 92.5385C29.4842 91.9778 29.1532 91.4678 28.73 91.04Z" fill="#003974"/>
</svg>
