<svg width="79" height="95" viewBox="0 0 79 95" fill="none" xmlns="http://www.w3.org/2000/svg">
<g clip-path="url(#clip0_830_61)">
<path d="M50.9871 42.75H43.8871V35.65C43.8871 34.35 42.8871 33.35 41.5871 33.35H37.4871C36.1871 33.35 35.1871 34.35 35.1871 35.65V42.75H28.0871C26.7871 42.75 25.7871 43.75 25.7871 45.05V49.15C25.7871 50.45 26.7871 51.45 28.0871 51.45H35.1871V58.55C35.1871 59.85 36.1871 60.85 37.4871 60.85H41.4871C42.7871 60.85 43.7871 59.85 43.7871 58.55V51.45H50.8871C52.1871 51.45 53.1871 50.45 53.1871 49.15V45.15C53.2871 43.85 52.2871 42.75 50.9871 42.75Z" fill="#003974"/>
<path d="M78.7869 25.85C78.7869 23.45 78.6869 21.15 78.6869 18.95V16.65C78.6869 15.15 77.4869 13.95 75.9869 13.95H73.6869C60.6869 13.95 51.1869 10.35 42.8869 2.35L41.2869 0.75C40.2869 -0.25 38.5869 -0.25 37.5869 0.75L35.9869 2.35C27.7869 10.35 18.2869 13.95 5.1869 13.95H2.8869C1.3869 13.95 0.186896 15.15 0.186896 16.65V18.95C0.186896 21.15 0.186897 23.45 0.0868969 25.85C-0.313103 48.85 -0.913105 80.45 37.7869 93.85C38.8869 94.25 39.9869 94.25 41.0869 93.85C79.8869 80.45 79.1869 48.95 78.7869 25.85ZM39.4869 70.05C26.7869 70.05 16.5869 59.75 16.5869 47.15C16.5869 34.55 26.7869 24.25 39.4869 24.25C52.1869 24.25 62.3869 34.45 62.3869 47.15C62.3869 59.85 52.1869 70.05 39.4869 70.05Z" fill="#003974"/>
</g>
<defs>
<clipPath id="clip0_830_61">
<rect width="79" height="95" fill="white"/>
</clipPath>
</defs>
</svg>
