<svg width="100" height="100" viewBox="0 0 100 100" fill="none" xmlns="http://www.w3.org/2000/svg">
<path d="M50 0C40.1109 0 30.444 2.93245 22.2215 8.42652C13.9991 13.9206 7.59043 21.7295 3.80604 30.8658C0.0216641 40.0021 -0.968502 50.0555 0.960758 59.7545C2.89002 69.4535 7.65206 78.3627 14.6447 85.3553C21.6373 92.3479 30.5464 97.11 40.2455 99.0392C49.9445 100.968 59.9979 99.9783 69.1342 96.194C78.2705 92.4096 86.0794 86.0009 91.5735 77.7785C97.0675 69.556 100 59.8891 100 50C100 36.7392 94.7322 24.0215 85.3553 14.6447C75.9785 5.26784 63.2608 0 50 0ZM50.62 75.53C50.8352 75.6455 51.0757 75.706 51.32 75.706C51.5643 75.706 51.8048 75.6455 52.02 75.53C52.8838 74.9027 53.6694 74.1741 54.36 73.36C55.36 72.17 56.24 70.88 57.23 69.54L58.62 70.38C56.62 73.72 54.56 76.82 51.5 79.14C49.8926 80.4199 47.9603 81.2267 45.92 81.47C41.15 82.01 38.1 78.76 39.24 74.08C40.24 69.97 41.51 65.92 42.67 61.84C43.83 57.76 45 53.52 46.18 49.38C46.2751 48.9713 46.3452 48.5572 46.39 48.14C46.4806 47.791 46.493 47.4264 46.4264 47.0721C46.3598 46.7177 46.2158 46.3825 46.0047 46.0902C45.7936 45.7979 45.5206 45.5559 45.2052 45.3812C44.8898 45.2066 44.5398 45.1038 44.18 45.08C43.4552 45.0159 42.7276 44.9892 42 45C42.0124 44.7602 42.0493 44.5223 42.11 44.29L42.25 43.29L59.49 40.53L58.29 44.71L58.02 45.71C55.52 54.4433 53.01 63.2067 50.49 72C50.2329 72.6885 50.0681 73.4081 50 74.14C49.9995 74.4023 50.0545 74.6617 50.1613 74.9013C50.2682 75.1409 50.4245 75.3551 50.62 75.53ZM54.76 31C53.9415 30.9948 53.132 30.828 52.3781 30.5094C51.6241 30.1907 50.9405 29.7263 50.3664 29.1429C49.7922 28.5595 49.3389 27.8685 49.0324 27.1095C48.7258 26.3505 48.5721 25.5385 48.58 24.72C48.58 23.9045 48.7406 23.097 49.0527 22.3435C49.3648 21.5901 49.8222 20.9055 50.3989 20.3289C50.9755 19.7522 51.6601 19.2948 52.4135 18.9827C53.167 18.6706 53.9745 18.51 54.79 18.51C55.6055 18.51 56.413 18.6706 57.1665 18.9827C57.9199 19.2948 58.6045 19.7522 59.1811 20.3289C59.7578 20.9055 60.2152 21.5901 60.5273 22.3435C60.8394 23.097 61 23.9045 61 24.72C60.9974 26.3778 60.3404 27.9676 59.1719 29.1437C58.0034 30.3197 56.4178 30.9868 54.76 31Z" fill="black"/>
</svg>
