<svg width="83" height="96" viewBox="0 0 83 96" fill="none" xmlns="http://www.w3.org/2000/svg">
<g clip-path="url(#clip0_830_54)">
<path d="M82.1259 19.029C82.1259 8.536 73.5899 0 63.0969 0C52.6039 0 44.0679 8.536 44.0679 19.029C44.0679 29.522 52.6039 38.058 63.0969 38.058C73.5899 38.058 82.1259 29.521 82.1259 19.029ZM63.7149 16.09C65.2289 16.408 66.9439 16.769 68.4219 17.743C69.7989 18.651 71.4409 20.429 71.4409 23.746C71.4409 27.026 69.2199 29.832 66.0979 30.95V34.378H60.0979V30.95C56.9759 29.832 54.7549 27.025 54.7549 23.746H60.7549C60.7549 24.68 61.8279 25.469 63.0979 25.469C64.3679 25.469 65.4409 24.68 65.4409 23.746C65.4409 22.785 65.4409 22.585 62.4809 21.962C60.9669 21.644 59.2519 21.283 57.7739 20.309C56.3969 19.401 54.7549 17.623 54.7549 14.306C54.7549 11.026 56.9759 8.22 60.0979 7.102V3.68H66.0979V7.102C69.2199 8.22 71.4409 11.027 71.4409 14.306H65.4409C65.4409 13.372 64.3679 12.583 63.0979 12.583C61.8279 12.583 60.7549 13.372 60.7549 14.306C60.7539 15.268 60.7539 15.468 63.7149 16.09Z" fill="#003974"/>
<path d="M41.4619 6.46497H38.0679V11.581L39.3449 11.137C39.8909 9.49697 40.6049 7.93497 41.4619 6.46497Z" fill="#003974"/>
<path d="M26.275 20.094C12.55 25.34 2.295 37.665 0 52.58C2.363 51.451 4.973 50.846 7.655 50.846C10.596 50.846 13.45 51.577 15.987 52.926C16.642 42.827 18.943 33.458 22.633 26.079C23.751 23.841 24.971 21.844 26.275 20.094Z" fill="#003974"/>
<path d="M44.0688 35.2679V52.8229C46.5568 51.5399 49.3408 50.8459 52.2068 50.8459C54.9868 50.8459 57.6898 51.4979 60.1208 52.7079C59.8988 49.6339 59.5118 46.6279 58.9588 43.7129C53.0358 42.7239 47.8118 39.6479 44.0688 35.2679Z" fill="#003974"/>
<path d="M77.7071 39.338C74.1021 41.938 69.7811 43.604 65.1011 43.977C65.6011 46.89 65.9521 49.879 66.1501 52.925C68.6871 51.577 71.5411 50.845 74.4811 50.845C77.1621 50.845 79.7721 51.45 82.1341 52.578C81.4221 47.947 79.9281 43.476 77.7071 39.338Z" fill="#003974"/>
<path d="M38.0692 52.822V17.932C34.4012 19.288 30.8462 23.07 27.9992 28.763C24.7312 35.299 22.6632 43.64 22.0132 52.71C24.4452 51.499 27.1492 50.846 29.9302 50.846C32.7962 50.846 35.5792 51.539 38.0672 52.823V86.543C38.0682 88.449 36.5172 90 34.6102 90C32.7062 90 31.1582 88.449 31.1582 86.542H25.1582C25.1582 91.757 29.3982 96 34.6102 96C39.8252 96 44.0682 91.757 44.0682 86.542V52.823C43.0222 53.307 42.0192 53.89 41.0682 54.522C40.1172 53.89 39.1142 53.305 38.0692 52.822Z" fill="#003974"/>
</g>
<defs>
<clipPath id="clip0_830_54">
<rect width="83" height="96" fill="white"/>
</clipPath>
</defs>
</svg>
