<svg width="68" height="94" viewBox="0 0 68 94" fill="none" xmlns="http://www.w3.org/2000/svg">
<g clip-path="url(#clip0_830_52)">
<path d="M49.2179 21.9202C53.8779 24.5452 59.0379 27.0632 61.4059 23.8042C61.4247 23.6858 61.4324 23.566 61.4289 23.4462C61.3028 23.1309 61.3012 22.7794 61.4244 22.4629C61.5477 22.1465 61.7866 21.8887 62.0928 21.7417C62.399 21.5948 62.7496 21.5697 63.0736 21.6715C63.3976 21.7734 63.6708 21.9945 63.8379 22.2902C64.0373 22.7533 64.1286 23.2558 64.1049 23.7595C64.0811 24.2632 63.943 24.7549 63.7009 25.1972C63.1008 26.103 62.2779 26.8392 61.3113 27.3354C60.3446 27.8315 59.2666 28.0707 58.1809 28.0302C57.2871 28.0216 56.3978 27.9034 55.5329 27.6782C52.9346 26.9031 50.4474 25.7956 48.1329 24.3832C48.4089 24.6762 48.6769 24.9832 48.9419 25.2912C49.9489 26.4552 50.9899 27.6592 52.3529 28.0022C52.8679 28.1312 54.1639 28.3602 54.4349 28.3782C54.784 28.3902 55.1147 28.538 55.3564 28.7902C55.5981 29.0424 55.7318 29.3791 55.7289 29.7284C55.7261 30.0778 55.5869 30.4122 55.3411 30.6604C55.0952 30.9086 54.7622 31.051 54.4129 31.0572C53.4992 30.9666 52.5927 30.8136 51.6999 30.5992C49.8836 30.0057 48.2972 28.8614 47.1609 27.3252C47.2388 26.1228 47.0081 24.9204 46.4909 23.8322C46.2497 23.3498 45.8707 22.9499 45.4019 22.6832C45.4322 22.419 45.4234 22.1518 45.3759 21.8902C45.3283 21.5725 45.3066 21.2514 45.3109 20.9302C46.4724 20.7321 47.6661 20.973 48.6599 21.6062L49.2179 21.9202ZM27.1909 25.0532H23.4469C22.9705 26.0933 22.9248 27.2796 23.3199 28.3532C23.6459 29.0762 24.0909 29.0762 24.2809 29.0762H43.2149C43.4049 29.0762 43.8509 29.0762 44.1759 28.3532C44.5718 27.2798 44.5265 26.0933 44.0499 25.0532H40.3009C40.1219 25.0581 39.9437 25.0271 39.777 24.9619C39.6102 24.8968 39.4581 24.7989 39.3298 24.6741C39.2015 24.5492 39.0995 24.3999 39.0298 24.2349C38.9602 24.07 38.9243 23.8928 38.9243 23.7137C38.9243 23.5347 38.9602 23.3574 39.0298 23.1925C39.0995 23.0275 39.2015 22.8782 39.3298 22.7533C39.4581 22.6285 39.6102 22.5306 39.777 22.4655C39.9437 22.4003 40.1219 22.3693 40.3009 22.3742H42.6889C42.6115 21.8942 42.5751 21.4084 42.5799 20.9222C42.5799 20.7272 42.5739 20.4792 42.5569 20.3222C42.4321 20.3038 42.306 20.2955 42.1799 20.2972H25.3129C25.1864 20.2955 25.06 20.3038 24.9349 20.3222C24.9179 20.4832 24.9149 20.7312 24.9119 20.9222C24.9172 21.4084 24.8807 21.8942 24.8029 22.3742H27.1909C27.3699 22.3693 27.548 22.4003 27.7148 22.4655C27.8816 22.5306 28.0337 22.6285 28.162 22.7533C28.2903 22.8782 28.3923 23.0275 28.462 23.1925C28.5316 23.3574 28.5675 23.5347 28.5675 23.7137C28.5675 23.8928 28.5316 24.07 28.462 24.2349C28.3923 24.3999 28.2903 24.5492 28.162 24.6741C28.0337 24.7989 27.8816 24.8968 27.7148 24.9619C27.548 25.0271 27.3699 25.0581 27.1909 25.0532ZM17.2469 6.01321C17.6149 6.32321 17.9969 6.6432 18.3689 6.9752C21.6655 10.0196 24.4 13.6209 26.4469 17.6142H26.9219C25.8485 13.9747 23.8199 10.6892 21.0469 8.09921C20.9156 7.98187 20.8086 7.83982 20.7322 7.68116C20.6558 7.5225 20.6114 7.35034 20.6015 7.17451C20.5916 6.99868 20.6164 6.82263 20.6746 6.6564C20.7327 6.49017 20.823 6.33703 20.9404 6.20571C21.0577 6.07438 21.1998 5.96746 21.3584 5.89104C21.5171 5.81461 21.6893 5.77019 21.8651 5.7603C22.0409 5.75041 22.217 5.77525 22.3832 5.8334C22.5494 5.89155 22.7026 5.98187 22.8339 6.09921C26.0319 9.07311 28.3572 12.8637 29.5589 17.0622C29.6176 17.2427 29.6618 17.4276 29.6909 17.6152H30.7179C30.6043 15.5726 30.0065 13.5863 28.9739 11.8202C28.8827 11.6698 28.8221 11.5029 28.7955 11.329C28.7689 11.1552 28.7767 10.9778 28.8187 10.8069C28.9033 10.462 29.1216 10.1648 29.4254 9.9807C29.7292 9.79664 30.0937 9.74081 30.4386 9.82548C30.7836 9.91015 31.0808 10.1284 31.2649 10.4322C32.5502 12.6175 33.2843 15.0828 33.4039 17.6152H34.1039C34.2225 15.0828 34.9563 12.6173 36.2419 10.4322C36.4259 10.1284 36.7231 9.91015 37.0681 9.82548C37.4131 9.74081 37.7776 9.79664 38.0814 9.9807C38.3852 10.1648 38.6034 10.462 38.6881 10.8069C38.7728 11.1519 38.7169 11.5164 38.5329 11.8202C37.5003 13.5863 36.9025 15.5726 36.7889 17.6152H37.7979C37.8341 17.4274 37.8842 17.2426 37.9479 17.0622C39.2064 12.8911 41.5196 9.11508 44.6639 6.09921C44.9291 5.8621 45.2776 5.74007 45.6328 5.75994C45.988 5.77982 46.3208 5.93999 46.5579 6.2052C46.795 6.47042 46.917 6.81896 46.8971 7.17416C46.8773 7.52935 46.7171 7.8621 46.4519 8.09921C43.6774 10.6902 41.6484 13.9777 40.5759 17.6192H41.0469C43.093 13.6242 45.8271 10.0211 49.1239 6.9752C49.4959 6.6432 49.8779 6.32321 50.2469 6.01321C51.3859 5.05621 52.8039 3.86421 52.7059 3.19021C52.6659 2.91421 52.2409 1.8902 48.4619 0.248205C46.8619 -0.444795 45.8849 0.348205 44.1769 2.19221C42.9699 3.49921 41.3169 5.2832 39.2159 4.0742C37.9909 3.3742 37.0359 2.77921 36.2699 2.30521C35.5138 1.72436 34.6591 1.28466 33.7469 1.00721C32.8344 1.28504 31.9797 1.72545 31.2239 2.30721C30.4569 2.78121 29.5019 3.37221 28.2769 4.07621C26.1769 5.28521 24.5229 3.4992 23.3159 2.19421C21.6089 0.349205 20.6289 -0.443795 19.0309 0.250205C15.2519 1.89021 14.8309 2.9162 14.7869 3.1922C14.6889 3.8642 16.1069 5.05621 17.2469 6.01321ZM65.7909 78.4722C63.7839 83.0522 59.6279 86.8202 53.7729 89.3722C47.6655 91.8719 41.1142 93.1058 34.5159 92.9992C27.5311 93.063 20.6012 91.7609 14.1159 89.1662C7.91588 86.5402 3.62189 82.8422 1.71589 78.4882C-1.20811 71.5622 -0.367118 62.2342 4.02489 52.8952C8.1021 44.0988 14.6158 36.6558 22.7939 31.4482C23.261 31.6541 23.7664 31.759 24.2769 31.7562H43.2149C43.7264 31.7588 44.2328 31.6535 44.7009 31.4472C52.8807 36.6538 59.3962 44.0965 63.4749 52.8932C67.8659 62.2332 68.7069 71.5622 65.7909 78.4722ZM53.0469 62.1112C53.0455 57.6496 51.4973 53.3265 48.6661 49.8783C45.8349 46.4301 41.8958 44.0701 37.5199 43.2003C33.1439 42.3305 28.6017 43.0048 24.667 45.1082C20.7324 47.2116 17.6487 50.6141 15.9412 54.736C14.2337 58.8579 14.0081 63.4444 15.3028 67.714C16.5974 71.9836 19.3323 75.6723 23.0415 78.1517C26.7507 80.6312 31.2048 81.748 35.645 81.3119C40.0852 80.8759 44.2369 78.9139 47.3929 75.7602C49.1911 73.9721 50.6167 71.845 51.5872 69.5021C52.5578 67.1592 53.0539 64.6471 53.0469 62.1112ZM45.5009 50.3562C48.2286 53.0756 49.9286 56.6568 50.3114 60.4894C50.6941 64.322 49.7357 68.1686 47.5997 71.3737C45.4636 74.5788 42.2821 76.9438 38.5974 78.0656C34.9128 79.1874 30.9531 78.9966 27.3934 77.5257C23.8337 76.0547 20.8943 73.3947 19.0764 69.9991C17.2584 66.6035 16.6744 62.6825 17.4239 58.9044C18.1734 55.1264 20.21 51.7253 23.1865 49.2808C26.163 46.8363 29.8952 45.4999 33.7469 45.4992C35.9298 45.4919 38.0926 45.9174 40.1101 46.7511C42.1276 47.5848 43.9598 48.8101 45.5009 50.3562ZM47.3189 62.1112C47.3182 58.9711 46.2288 55.9284 44.2363 53.5015C42.2438 51.0745 39.4714 49.4135 36.3916 48.8014C33.3117 48.1894 30.1149 48.6641 27.3458 50.1447C24.5767 51.6254 22.4067 54.0203 21.2054 56.9215C20.0041 59.8228 19.8459 63.0507 20.7578 66.0555C21.6696 69.0603 23.5951 71.656 26.2061 73.4003C28.8172 75.1446 31.9522 75.9296 35.0772 75.6216C38.2021 75.3137 41.1236 73.9317 43.3439 71.7112C44.6085 70.4535 45.611 68.9574 46.2933 67.3095C46.9756 65.6616 47.3242 63.8947 47.3189 62.1112ZM41.4499 54.4112C43.231 56.1943 44.3388 58.5398 44.5845 61.0482C44.8303 63.5565 44.1987 66.0724 42.7974 68.1672C41.3961 70.2621 39.3118 71.8063 36.8996 72.5367C34.4875 73.2671 31.8967 73.1386 29.5687 72.173C27.2407 71.2074 25.3195 69.4644 24.1324 67.2412C22.9454 65.0179 22.5659 62.4518 23.0587 59.9802C23.5515 57.5085 24.886 55.2841 26.8349 53.6861C28.7839 52.088 31.2266 51.2152 33.7469 51.2162C35.1775 51.213 36.5946 51.4933 37.9163 52.041C39.2379 52.5888 40.4379 53.393 41.4469 54.4072L41.4499 54.4112ZM37.9709 58.9262C37.9432 58.0918 37.6478 57.2884 37.1282 56.6348C36.6087 55.9813 35.8926 55.5123 35.0859 55.2972V54.2182C35.0908 54.0392 35.0597 53.8611 34.9946 53.6943C34.9295 53.5275 34.8316 53.3754 34.7068 53.2471C34.5819 53.1188 34.4326 53.0168 34.2676 52.9471C34.1027 52.8775 33.9254 52.8416 33.7464 52.8416C33.5673 52.8416 33.3901 52.8775 33.2251 52.9471C33.0602 53.0168 32.9109 53.1188 32.786 53.2471C32.6611 53.3754 32.5633 53.5275 32.4981 53.6943C32.433 53.8611 32.402 54.0392 32.4069 54.2182V55.2932C31.6 55.5081 30.8837 55.977 30.3639 56.6306C29.8442 57.2841 29.5486 58.0876 29.5209 58.9222V59.6222C29.5209 62.6012 31.9949 63.1152 33.4739 63.4222C35.2199 63.7852 35.2919 63.9652 35.2919 64.5992V65.2992C35.2919 65.9222 34.5839 66.4482 33.7459 66.4482C32.9079 66.4482 32.1999 65.9222 32.1999 65.2992V64.5992C32.2048 64.4202 32.1737 64.2421 32.1086 64.0753C32.0435 63.9085 31.9456 63.7564 31.8208 63.6281C31.6959 63.4998 31.5466 63.3978 31.3816 63.3281C31.2167 63.2585 31.0394 63.2226 30.8604 63.2226C30.6813 63.2226 30.5041 63.2585 30.3391 63.3281C30.1742 63.3978 30.0249 63.4998 29.9 63.6281C29.7751 63.7564 29.6773 63.9085 29.6121 64.0753C29.547 64.2421 29.516 64.4202 29.5209 64.5992V65.2992C29.5484 66.1338 29.844 66.9374 30.3637 67.591C30.8835 68.2446 31.5999 68.7135 32.4069 68.9282V69.9992C32.402 70.1782 32.433 70.3563 32.4981 70.5231C32.5633 70.6899 32.6611 70.842 32.786 70.9703C32.9109 71.0986 33.0602 71.2006 33.2251 71.2703C33.3901 71.3399 33.5673 71.3758 33.7464 71.3758C33.9254 71.3758 34.1027 71.3399 34.2676 71.2703C34.4326 71.2006 34.5819 71.0986 34.7068 70.9703C34.8316 70.842 34.9295 70.6899 34.9946 70.5231C35.0597 70.3563 35.0908 70.1782 35.0859 69.9992V68.9282C35.8927 68.7133 36.6089 68.2443 37.1284 67.5907C37.648 66.9372 37.9434 66.1337 37.9709 65.2992V64.5992C37.9709 61.6202 35.4969 61.1062 34.0179 60.7992C32.2719 60.4372 32.1999 60.2562 32.1999 59.6222V58.9222C32.1999 58.3002 32.9079 57.7742 33.7459 57.7742C34.5839 57.7742 35.2919 58.3002 35.2919 58.9222V59.6222C35.287 59.8012 35.318 59.9793 35.3831 60.1461C35.4483 60.3129 35.5461 60.465 35.671 60.5933C35.7959 60.7216 35.9452 60.8236 36.1101 60.8933C36.2751 60.9629 36.4523 60.9988 36.6314 60.9988C36.8104 60.9988 36.9877 60.9629 37.1526 60.8933C37.3176 60.8236 37.4669 60.7216 37.5918 60.5933C37.7166 60.465 37.8145 60.3129 37.8796 60.1461C37.9447 59.9793 37.9758 59.8012 37.9709 59.6222V58.9262Z" fill="#003974"/>
</g>
<defs>
<clipPath id="clip0_830_52">
<rect width="68" height="94" fill="white"/>
</clipPath>
</defs>
</svg>
