<svg width="65" height="56" viewBox="0 0 65 56" fill="none" xmlns="http://www.w3.org/2000/svg">
  <g clip-path="url(#clip0_829_50)">
    <path fillRule="evenodd" clipRule="evenodd"
      d="M32.1599 21.4427C32.1599 21.9481 31.6753 22.3586 31.0763 22.3586C30.4783 22.3586 29.9926 21.9489 29.9926 21.4427C29.9926 20.3073 30.5411 19.2749 31.4258 18.5288C32.3095 17.7819 33.5304 17.3175 34.8733 17.3175H23.8238C22.5345 17.3175 21.3605 17.7668 20.5089 18.4882C19.6554 19.2114 19.1263 20.2058 19.1263 21.2972V29.1842L28.8467 33.9373C29.4059 34.2111 29.7258 34.6798 29.7258 35.2253V43.2543H24.0094C23.6645 43.2543 23.3298 43.2944 23.012 43.3681V37.5487C23.012 37.2089 22.8099 36.9169 22.4594 36.7501L12.4405 31.9963V49.4992H5.37516V19.9998C5.37516 19.4724 4.87006 19.0455 4.24608 19.0455C3.62262 19.0455 3.117 19.4724 3.117 19.9998V33.629C1.46136 32.9546 0.319021 31.5652 0.319021 29.9705V16.4351C0.319021 13.3402 4.31289 12.3432 7.33083 12.3432H35.7364C37.3568 12.3432 38.6722 13.4566 38.6722 14.8301C38.6722 16.2035 37.3575 17.3165 35.7364 17.3165H34.8757C36.218 17.3165 37.439 17.7809 38.3233 18.5278C39.2069 19.2743 39.7554 20.3066 39.7554 21.4417H39.7519V43.2533H37.5927L37.5932 21.4417H37.5886C37.5886 20.8121 37.283 20.2381 36.7906 19.822C36.2983 19.4067 35.6202 19.1475 34.8753 19.1475C34.1304 19.1475 33.4514 19.4063 32.959 19.822C32.4661 20.2385 32.1599 20.8122 32.1599 21.4427ZM63.3816 45.0859H46.398C45.5098 45.0859 44.7776 45.7034 44.7776 46.4543V48.1312C44.7776 48.882 45.5093 49.4996 46.398 49.4996H63.3803C64.2696 49.4996 64.9987 48.8821 64.9987 48.1312V46.4543C64.9987 45.7035 64.2704 45.0859 63.3816 45.0859ZM24.0084 45.0859C23.1207 45.0859 22.3895 45.7043 22.3895 46.4543V48.1312C22.3895 48.882 23.1201 49.4996 24.0084 49.4996H40.992C41.8802 49.4996 42.6118 48.8821 42.6118 48.1312V46.4543C42.6118 45.7035 41.8802 45.0859 40.992 45.0859H24.0084ZM63.3816 43.2545C64.2709 43.2545 65 42.637 65 41.8862L64.9995 40.2095C64.9995 39.4587 64.2704 38.8412 63.3811 38.8412H46.3988C45.5105 38.8412 44.7784 39.4587 44.7784 40.2095V41.8865C44.7784 42.6373 45.5101 43.2548 46.3988 43.2548L63.3816 43.2545ZM63.3816 55.7433C64.2709 55.7433 65 55.1258 65 54.3754V52.6985C65 51.9477 64.2709 51.3301 63.3816 51.3301L46.398 51.3306C45.5098 51.3306 44.7776 51.9481 44.7776 52.6989V54.3759C44.7776 55.1262 45.5093 55.7438 46.398 55.7438L63.3816 55.7433ZM24.0084 55.7433H40.992C41.8802 55.7433 42.6118 55.1258 42.6118 54.3754V52.6985C42.6118 51.9477 41.8802 51.3301 40.992 51.3301L24.0084 51.3306C23.1207 51.3306 22.3895 51.9481 22.3895 52.6989V54.3759C22.389 55.1266 23.1206 55.7433 24.0084 55.7433ZM18.6038 55.7433C19.4921 55.7433 20.2227 55.1258 20.2227 54.3754V52.6985C20.2227 51.9477 19.4926 51.3301 18.6038 51.3301L1.61894 51.3306C0.730672 51.3306 0 51.9481 0 52.6989V54.3759C0 55.1262 0.73062 55.7438 1.61894 55.7438L18.6038 55.7433ZM12.2824 0C15.3866 0 17.9014 1.4976 17.9014 4.9526C17.9014 8.40759 15.3855 11.208 12.2824 11.208C9.17932 11.208 6.66398 8.40715 6.66398 4.9526C6.66398 1.49716 9.17932 0 12.2824 0Z"
      fill="#003974" />
  </g>
  <defs>
    <clipPath id="clip0_829_50">
      <rect width="65" height="56" fill="white" />
    </clipPath>
  </defs>
</svg>