<svg width="89" height="87" viewBox="0 0 89 87" fill="none" xmlns="http://www.w3.org/2000/svg">
  <g clip-path="url(#clip0_829_43)">
    <mask id="mask0_829_43" style="mask-type:luminance" maskUnits="userSpaceOnUse" x="0" y="0"
      width="89" height="87">
      <path d="M89 0H0V87H89V0Z" fill="white" />
    </mask>
    <g mask="url(#mask0_829_43)">
      <path fillRule="evenodd" clipRule="evenodd"
        d="M31.0926 26.7089L87.2141 51.7081C89.0168 52.8568 88.7216 54.8575 86.8642 55.4805L63.8903 60.9539L57.3219 84.9287C56.8096 86.7097 54.3456 86.9688 53.5682 85.2211L28.4539 29.3552C27.6709 27.7425 29.4053 26.1008 31.0926 26.7089Z"
        fill="#003974" />
      <path fillRule="evenodd" clipRule="evenodd"
        d="M33.2838 0C51.6425 0 66.5289 14.8557 66.5289 33.1422C66.5344 33.4082 66.4868 33.6728 66.3887 33.9202C66.2907 34.1677 66.1443 34.3931 65.9581 34.5832C65.7718 34.7733 65.5495 34.9243 65.3041 35.0275C65.0588 35.1306 64.7953 35.1837 64.5291 35.1837C64.263 35.1837 63.9995 35.1306 63.7542 35.0275C63.5088 34.9243 63.2865 34.7733 63.1002 34.5832C62.914 34.3931 62.7676 34.1677 62.6695 33.9202C62.5715 33.6728 62.5239 33.4082 62.5294 33.1422C62.5294 17.0196 49.4921 4.00067 33.2838 4.00067C17.0755 4.00067 3.99951 17.0227 3.99951 33.1422C3.99951 49.2198 17.0755 62.2438 33.2838 62.2438C33.55 62.2381 33.8147 62.2857 34.0622 62.3837C34.3098 62.4816 34.5353 62.628 34.7255 62.8143C34.9158 63.0005 35.0669 63.2229 35.1701 63.4683C35.2733 63.7138 35.3265 63.9773 35.3265 64.2435C35.3265 64.5098 35.2733 64.7733 35.1701 65.0187C35.0669 65.2642 34.9158 65.4865 34.7255 65.6728C34.5353 65.859 34.3098 66.0055 34.0622 66.1035C33.8147 66.2014 33.55 66.2489 33.2838 66.2432C14.9252 66.2432 0 51.3948 0 33.1422C0 14.8526 14.9252 0 33.2838 0Z"
        fill="#003974" />
    </g>
  </g>
  <defs>
    <clipPath id="clip0_829_43">
      <rect width="89" height="87" fill="white" />
    </clipPath>
  </defs>
</svg>