<svg width="56" height="47" viewBox="0 0 56 47" fill="none" xmlns="http://www.w3.org/2000/svg">
<g clip-path="url(#clip0_829_34)">
<mask id="mask0_829_34" style="mask-type:luminance" maskUnits="userSpaceOnUse" x="0" y="0" width="56" height="47">
<path d="M56 0H0V47H56V0Z" fill="white"/>
</mask>
<g mask="url(#mask0_829_34)">
<path d="M36.4808 22.4952C36.161 22.1703 35.7398 21.9644 35.2869 21.9116C34.8341 21.8589 34.3768 21.9625 33.9908 22.2052L25.3508 26.7252C24.6943 27.1148 24.1356 27.6495 23.7178 28.2884C23.2999 28.9274 23.0339 29.6535 22.9402 30.4112C22.8464 31.1688 22.9274 31.9379 23.1769 32.6594C23.4265 33.3809 23.8379 34.0357 24.3797 34.5736C24.9215 35.1114 25.5793 35.5181 26.3026 35.7623C27.0259 36.0066 27.7956 36.082 28.5525 35.9827C29.3095 35.8834 30.0337 35.6121 30.6695 35.1896C31.3054 34.7671 31.8361 34.2046 32.2208 33.5452L36.7708 24.9852C37.0135 24.5992 37.1171 24.142 37.0644 23.6891C37.0116 23.2362 36.8057 22.815 36.4808 22.4952Z" fill="#003974"/>
<path d="M55.9007 25.7154C55.5 20.71 53.7438 15.9082 50.8207 11.8254C50.627 11.549 50.3755 11.3182 50.0834 11.149C49.7914 10.9798 49.466 10.8764 49.1299 10.8459C48.7939 10.8155 48.4552 10.8587 48.1375 10.9726C47.8198 11.0865 47.5308 11.2683 47.2907 11.5054L41.2907 17.5054C40.9287 17.8776 40.7008 18.3597 40.6429 18.8756C40.585 19.3916 40.7003 19.9122 40.9707 20.3554C42.4514 22.8824 43.16 25.7876 43.009 28.7126C42.8579 31.6376 41.8539 34.4544 40.1207 36.8154C39.7433 37.3305 39.563 37.9638 39.6126 38.6004C39.6621 39.2371 39.9382 39.8348 40.3907 40.2854L45.8207 45.7154C46.0895 45.9805 46.4109 46.1864 46.7642 46.3196C47.1175 46.4528 47.4948 46.5104 47.8717 46.4887C48.2487 46.4671 48.6169 46.3666 48.9526 46.1937C49.2883 46.0209 49.584 45.7796 49.8207 45.4854C54.3027 39.9163 56.4787 32.8406 55.9007 25.7154Z" fill="#003974"/>
<path d="M44.1408 5.15527C39.4214 1.80173 33.7753 0 27.9858 0C22.1962 0 16.5502 1.80173 11.8308 5.15527C11.552 5.34798 11.3189 5.59943 11.1477 5.89193C10.9765 6.18442 10.8715 6.51087 10.8401 6.8483C10.8086 7.18573 10.8515 7.52595 10.9656 7.84504C11.0798 8.16414 11.2624 8.45435 11.5008 8.69527L17.6308 14.8253C17.9926 15.1776 18.462 15.3985 18.9641 15.4529C19.4661 15.5073 19.9719 15.3919 20.4008 15.1253C22.4804 13.8507 24.8451 13.1152 27.2808 12.9853C30.1882 12.8443 33.0733 13.5569 35.5808 15.0353C36.023 15.3053 36.5429 15.4196 37.0577 15.3597C37.5724 15.2999 38.0522 15.0695 38.4208 14.7053L44.4208 8.70527C44.6635 8.4677 44.8511 8.17974 44.9704 7.86172C45.0896 7.54371 45.1376 7.20338 45.1109 6.8648C45.0842 6.52621 44.9834 6.19761 44.8158 5.90222C44.6482 5.60683 44.4178 5.35184 44.1408 5.15527Z" fill="#003974"/>
<path d="M12.9907 27.9854C12.9987 25.3333 13.7206 22.7322 15.0807 20.4554C15.3553 20.0117 15.4731 19.4887 15.415 18.9701C15.357 18.4515 15.1266 17.9674 14.7607 17.5954L8.67072 11.4854C8.43735 11.2502 8.15592 11.0682 7.8457 10.9519C7.53548 10.8356 7.20378 10.7876 6.87332 10.8114C6.54285 10.8351 6.22142 10.93 5.93101 11.0894C5.6406 11.2489 5.38808 11.4693 5.19072 11.7354C1.65018 16.7081 -0.168271 22.7017 0.0122527 28.8034C0.192777 34.9051 2.36239 40.7807 6.19072 45.5354C6.42662 45.8303 6.72177 46.0724 7.05709 46.2461C7.3924 46.4199 7.76044 46.5213 8.13741 46.5439C8.51437 46.5665 8.8919 46.5098 9.24558 46.3774C9.59926 46.2451 9.92124 46.04 10.1907 45.7754L15.6207 40.3454C16.0732 39.8949 16.3493 39.2971 16.3988 38.6604C16.4484 38.0238 16.2681 37.3905 15.8907 36.8754C13.997 34.299 12.9805 31.1828 12.9907 27.9854Z" fill="#003974"/>
</g>
</g>
<defs>
<clipPath id="clip0_829_34">
<rect width="56" height="47" fill="white"/>
</clipPath>
</defs>
</svg>
