<svg width="22" height="22" viewBox="0 0 22 22" fill="none" xmlns="http://www.w3.org/2000/svg">
<g clip-path="url(#clip0_829_31)">
<path d="M10.9999 7.80002C11.5999 7.80002 12.1999 8.20002 12.1999 8.80002H14.6999C14.5999 7.40002 13.5999 6.30002 12.2999 6.00002V4.90002H9.7999V6.10002C8.3999 6.40002 7.3999 7.60002 7.3999 9.00002C7.5999 10.9 9.1999 12.2 11.0999 12.1C11.6999 12.1 12.2999 12.5 12.2999 13.1C12.1999 13.7 11.6999 14.2 11.0999 14.1C10.4999 14.1 9.8999 13.7 9.8999 13.1H7.4999C7.5999 14.5 8.5999 15.7 9.8999 16V17.2H12.3999V15.9C13.7999 15.6 14.6999 14.4 14.7999 13C14.7999 11.3 13.1999 9.90002 11.0999 9.90002C10.4999 9.90002 9.8999 9.50002 9.8999 8.90002C9.7999 8.20002 10.3999 7.80002 10.9999 7.80002Z" fill="#003974"/>
<path d="M11 0C4.9 0 0 4.9 0 11C0 17.1 4.9 22 11 22C17.1 22 22 17.1 22 11C22 4.9 17.1 0 11 0ZM11 19.6C6.3 19.6 2.4 15.8 2.4 11C2.4 6.2 6.2 2.4 11 2.4C15.8 2.4 19.6 6.2 19.6 11C19.6 15.8 15.7 19.6 11 19.6Z" fill="#003974"/>
</g>
<defs>
<clipPath id="clip0_829_31">
<rect width="22" height="22" fill="white"/>
</clipPath>
</defs>
</svg>
