<svg width="28" height="20" viewBox="0 0 28 20" fill="none" xmlns="http://www.w3.org/2000/svg">
<g clip-path="url(#clip0_829_29)">
<path d="M24.88 0H3.12C2.29252 0 1.49894 0.328713 0.913827 0.913827C0.328713 1.49894 0 2.29252 0 3.12V16.88C0 17.7075 0.328713 18.5011 0.913827 19.0862C1.49894 19.6713 2.29252 20 3.12 20H24.88C25.7075 20 26.5011 19.6713 27.0862 19.0862C27.6713 18.5011 28 17.7075 28 16.88V3.12C28 2.29252 27.6713 1.49894 27.0862 0.913827C26.5011 0.328713 25.7075 0 24.88 0ZM12 15C12 15.2652 11.8946 15.5196 11.7071 15.7071C11.5196 15.8946 11.2652 16 11 16H4C3.73478 16 3.48043 15.8946 3.29289 15.7071C3.10536 15.5196 3 15.2652 3 15V5C3 4.73478 3.10536 4.48043 3.29289 4.29289C3.48043 4.10536 3.73478 4 4 4H11C11.2652 4 11.5196 4.10536 11.7071 4.29289C11.8946 4.48043 12 4.73478 12 5V15ZM24 16H16C15.7348 16 15.4804 15.8946 15.2929 15.7071C15.1054 15.5196 15 15.2652 15 15C15 14.7348 15.1054 14.4804 15.2929 14.2929C15.4804 14.1054 15.7348 14 16 14H24C24.2652 14 24.5196 14.1054 24.7071 14.2929C24.8946 14.4804 25 14.7348 25 15C25 15.2652 24.8946 15.5196 24.7071 15.7071C24.5196 15.8946 24.2652 16 24 16ZM24 12H16C15.7348 12 15.4804 11.8946 15.2929 11.7071C15.1054 11.5196 15 11.2652 15 11C15 10.7348 15.1054 10.4804 15.2929 10.2929C15.4804 10.1054 15.7348 10 16 10H24C24.2652 10 24.5196 10.1054 24.7071 10.2929C24.8946 10.4804 25 10.7348 25 11C25 11.2652 24.8946 11.5196 24.7071 11.7071C24.5196 11.8946 24.2652 12 24 12ZM24 6H16C15.7348 6 15.4804 5.89464 15.2929 5.70711C15.1054 5.51957 15 5.26522 15 5C15 4.73478 15.1054 4.48043 15.2929 4.29289C15.4804 4.10536 15.7348 4 16 4H24C24.2652 4 24.5196 4.10536 24.7071 4.29289C24.8946 4.48043 25 4.73478 25 5C25 5.26522 24.8946 5.51957 24.7071 5.70711C24.5196 5.89464 24.2652 6 24 6Z" fill="#003974"/>
</g>
<defs>
<clipPath id="clip0_829_29">
<rect width="28" height="20" fill="white"/>
</clipPath>
</defs>
</svg>
