<svg width="737" height="826" viewBox="0 0 737 826" fill="none" xmlns="http://www.w3.org/2000/svg">
<path d="M531.691 525.149L509.911 487.419L506.581 489.359L506.311 489.509C444.071 525.399 381.341 547.669 330.251 554.629C315.181 556.679 300.951 557.409 287.771 556.769L296.891 572.569C305.301 587.029 332.851 591.099 370.601 585.959C415.711 579.809 471.911 559.659 528.451 527.029L531.691 525.149ZM356.961 67.6289C419.261 103.569 470.001 146.849 501.671 187.729C507.891 195.759 513.421 203.769 518.201 211.709C550.991 203.489 581.071 200.339 606.071 202.579C640.411 205.649 666.631 218.719 680.341 242.469L681.411 244.399L727.421 323.999C747.131 358.129 734.581 404.089 698.401 450.799C673.641 482.759 637.151 516.219 592.541 546.519C596.111 550.009 599.361 553.619 602.271 557.329C613.141 571.229 619.681 586.999 619.491 604.809V698.039C619.491 737.369 585.601 770.919 530.821 793.299C482.851 812.909 417.291 825.039 345.551 825.039C273.811 825.039 208.241 812.909 160.271 793.299C105.491 770.919 71.6009 737.369 71.6009 698.039V603.909C71.6009 571.239 94.5309 546.269 120.251 529.309C140.561 515.919 167.171 504.469 198.181 495.749C194.821 479.549 196.971 461.679 204.011 442.899C209.821 427.379 219.161 410.979 231.561 394.279C216.181 387.119 200.631 379.079 185.111 370.189C183.821 369.609 182.581 368.909 181.391 368.099C119.831 332.329 69.6709 289.409 38.2609 248.889C2.1209 202.209 -10.3891 156.299 9.27089 122.209L55.0509 42.9189L56.3309 40.5789C76.0109 6.48891 122.081 -5.61109 180.601 2.35891C231.761 9.33891 294.591 31.6589 356.961 67.6289ZM537.841 259.009C542.131 279.399 540.061 298.309 530.691 314.529L529.241 316.909L483.611 396.049C463.931 430.139 417.871 442.239 359.361 434.269C335.131 430.969 308.291 424.229 280.121 414.219C266.541 430.659 256.731 446.409 251.431 460.559C248.201 469.189 244.701 482.449 249.861 491.009C261.301 510.909 305.281 506.919 323.511 504.429C368.611 498.289 424.791 478.149 481.321 445.529L481.521 445.419C537.941 412.829 583.381 374.269 611.251 338.309C634.571 308.199 644.831 282.329 636.481 267.869C631.621 259.459 619.251 254.539 601.711 252.979C583.911 251.389 562.151 253.469 537.841 259.009ZM448.871 354.879C435.701 355.519 421.471 354.799 406.421 352.749C355.171 345.759 292.311 323.439 230.011 287.469L228.641 286.619C215.521 278.999 202.921 271.059 190.911 262.889L169.221 300.459C181.501 308.909 194.501 317.139 208.151 325.029L210.081 326.199C266.001 358.209 321.471 377.989 366.101 384.069C403.841 389.209 431.381 385.139 439.751 370.649L448.871 354.879ZM150.001 232.379C137.121 221.819 125.271 211.079 114.561 200.339L93.8409 236.219C103.981 247.259 115.621 258.399 128.601 269.429L150.001 232.379ZM79.5509 159.599C72.7809 150.179 66.9809 140.829 62.2409 131.619L53.1309 147.409C47.3009 157.509 50.5209 173.149 60.9009 191.909L79.5509 159.599ZM461.591 218.689C433.751 182.759 388.221 144.169 331.611 111.489C275.121 78.8389 218.951 58.7089 173.861 52.5589C136.111 47.4189 108.561 51.4889 100.191 65.9789C91.8409 80.4389 102.111 106.319 125.431 136.419C153.111 172.139 198.151 210.429 254.051 242.879L255.411 243.609C311.971 276.269 368.131 296.409 413.161 302.549C450.911 307.689 478.461 303.619 486.831 289.129C495.181 274.669 484.911 248.789 461.591 218.689ZM122.401 679.769V698.039C122.401 714.799 144.171 732.089 179.331 746.459C221.311 763.619 280.051 774.239 345.551 774.239C352.761 774.239 359.891 774.109 366.921 773.859V730.529C359.861 730.769 352.741 730.899 345.551 730.899C273.791 730.899 208.231 718.759 160.271 699.159C146.191 693.399 133.501 686.899 122.401 679.769ZM417.721 769.729C428.281 768.369 438.501 766.719 448.321 764.799V722.169C438.401 723.929 428.191 725.439 417.721 726.689V769.729ZM499.121 751.249C503.481 749.719 507.701 748.119 511.761 746.459C546.921 732.089 568.691 714.799 568.691 698.039V679.779C557.591 686.919 544.901 693.409 530.831 699.159C520.971 703.189 510.371 706.919 499.121 710.269V751.249ZM625.981 398.299L646.571 433.979C650.781 429.239 654.701 424.519 658.321 419.839C681.651 389.719 691.911 363.859 683.561 349.399L674.411 333.539C668.381 345.269 660.641 357.249 651.331 369.269C643.911 378.859 635.421 388.569 625.981 398.299ZM609.201 470.409L587.801 433.349C576.781 442.439 565.001 451.389 552.551 460.109L574.231 497.659C586.741 488.749 598.431 479.619 609.201 470.409ZM220.831 542.039C190.961 549.609 165.991 559.719 148.031 571.569C131.801 582.279 122.411 593.449 122.401 603.899V603.909C122.401 620.659 144.161 637.939 179.331 652.319C221.311 669.469 280.041 680.099 345.551 680.099C411.051 680.099 469.791 669.479 511.771 652.319C529.981 644.869 568.701 626.749 568.701 603.659C568.461 597.829 565.941 593.019 562.391 588.489C558.701 583.769 553.591 579.109 547.241 574.539C487.041 608.369 426.751 629.419 377.341 636.159C318.821 644.129 272.751 632.029 253.071 597.939L220.831 542.039Z" fill="#003974"/>
</svg>
