<svg width="696" height="638" viewBox="0 0 696 638" fill="none" xmlns="http://www.w3.org/2000/svg">
<path d="M285.029 0C241.009 0 205.34 34.9696 205.34 78.0996C205.333 121.216 241.002 156.186 285.029 156.186C329.033 156.186 364.713 121.216 364.713 78.0996C364.713 34.9616 329.026 0 285.029 0ZM280.724 23.4785H290.476V33.8457C297.941 34.9207 303.812 37.9429 308.074 42.8789C312.366 47.8219 314.494 54.0902 314.494 61.6992H293.797C293.797 57.5292 292.979 54.3426 291.34 52.0996C289.695 49.8496 287.371 48.7383 284.365 48.7383C281.652 48.7383 279.571 49.5777 278.086 51.2188C276.587 52.8737 275.842 55.1727 275.842 58.0957C275.842 61.0537 276.703 63.4055 278.414 65.1465C280.14 66.8875 282.896 68.5428 286.689 70.1328C290.499 71.7158 294.081 73.3335 297.429 75.0605C300.815 76.7515 303.717 78.6858 306.166 80.8418C308.608 83.0058 310.538 85.5201 311.912 88.4141C313.308 91.2651 314.012 94.7263 314.012 98.7812C314.012 105.63 311.773 111.204 307.351 115.525C302.934 119.859 296.896 122.375 289.256 123.098V132.721H279.525V123.02C270.621 122.11 263.792 119.107 259.039 114.049C254.272 108.991 251.89 102.294 251.89 94.0039H272.543C272.543 98.5889 273.561 102.056 275.629 104.449C277.684 106.827 280.637 108.018 284.416 108.018C287.195 108.018 289.388 107.207 290.967 105.58C292.561 103.99 293.357 101.754 293.357 98.8887C293.355 95.7467 292.561 93.2523 290.967 91.4473C289.388 89.6633 286.586 87.9435 282.572 86.3535C278.588 84.7415 274.889 83.1224 271.49 81.4824C268.112 79.8484 265.188 77.9562 262.717 75.7852C260.29 73.6152 258.412 71.1293 257.088 68.2773C255.779 65.4403 255.135 62.0029 255.135 57.9629C255.135 51.2209 257.469 45.6182 262.133 41.2402C266.782 36.8482 272.982 34.3057 280.724 33.5957V23.4785ZM540.16 161.648C510.363 161.38 483.874 169.061 462.937 184.34C429.341 173.188 393.685 167.539 356.816 167.539C247.557 167.539 153.199 218.197 109.969 291.031C98.3915 282.713 85.5486 277.23 72.3396 275.049C63.4326 262.938 50.0684 253.362 33.4744 247.684C25.3894 244.919 16.4412 248.749 13.4392 256.203C10.4572 263.677 14.5911 271.956 22.6541 274.723C26.1791 275.923 29.2768 277.316 32.0408 278.832C16.8368 284.662 5.6873 295.268 1.8533 308.08C-3.1767 324.947 2.17461 340.623 16.1736 350.016C23.5296 354.944 32.4451 357.432 41.3201 357.432C49.3531 357.441 57.3429 355.395 64.0779 351.266C77.6599 342.977 85.2793 327.378 84.6443 309.762C88.8013 312.067 92.739 315.111 96.531 318.49C88.925 338.056 84.8006 358.796 84.8006 380.262C84.8006 435.252 111.206 486.975 159.33 526.633C158.302 550.973 158.16 603.972 174.504 622.662C185.903 635.725 209.7 637.676 222.887 637.676C231.231 637.676 259.528 636.676 273.453 623.805C281.277 616.582 285.384 600.525 287.523 586.012C321.546 593.012 357.108 594.827 392.67 591.148C395.213 603.02 399.154 616.256 404.762 622.674C416.166 635.726 440.179 637.676 453.48 637.676C464.072 637.676 490.142 636.33 503.707 623.814C518.107 610.512 520.074 573.379 519.853 551.096C541.666 539.331 559.373 523.395 567.886 515.068C632.687 513.051 647.745 483.225 649.281 479.73C650.842 476.187 650.822 472.22 649.211 468.688C647.602 465.151 644.532 462.356 640.689 460.932C635.337 458.936 630.6 455.709 627.045 451.906C670.307 450.139 679.858 439.238 683.172 435.434C700.641 415.475 700.162 349.247 677.529 331.988C667.906 324.669 655.654 323.68 644.939 323.68L634.351 323.793C626.742 323.793 624.645 323.075 624.094 322.768C618.516 318.292 615.095 311.27 610.355 301.549C602.779 285.979 592.608 265.087 565.797 243.246C569.535 224.017 579.067 208.197 596.006 192.771C599.953 189.169 601.533 183.927 600.172 178.961C598.799 174.005 594.705 170.076 589.385 168.664C572.284 164.111 555.768 161.789 540.16 161.648ZM352.582 187.898C365.983 187.931 379.255 188.893 392.273 190.783L390.545 223.346C363.215 219.38 334.585 219.89 306.01 224.883C277.214 229.857 250.211 238.916 225.742 251.84L213.396 221.693C240.047 207.644 269.353 197.79 300.508 192.398C317.906 189.354 335.351 187.857 352.582 187.898ZM528.883 281.217C539.68 281.217 548.431 289.852 548.431 300.506C548.431 311.159 539.68 319.795 528.883 319.795C518.088 319.795 509.334 311.159 509.334 300.506C509.334 289.852 518.088 281.217 528.883 281.217ZM41.2537 299.49C49.7367 299.49 56.6131 307.213 56.6131 316.74C56.6131 326.267 49.7367 333.99 41.2537 333.99C32.7717 333.99 25.8943 326.267 25.8943 316.74C25.8943 307.213 32.7707 299.49 41.2537 299.49Z" fill="#003974"/>
</svg>
