<svg width="64" height="65" viewBox="0 0 64 65" fill="none" xmlns="http://www.w3.org/2000/svg">
<g clip-path="url(#clip0_829_19)">
<path d="M51.6322 0C47.1688 0 44.3117 4.74707 46.4255 8.67839C53.8726 23.2774 53.4778 40.5527 46.6766 55.5279C42.8324 62.618 53.7149 68.1466 57.1736 60.8602C66.3803 42.7339 66.2694 21.2686 56.8704 3.24186C55.8737 1.26182 53.8491 0.00867437 51.6322 0ZM25.8288 7.40271C24.8081 7.44574 23.8162 7.75376 22.9505 8.29607C22.0848 8.83839 21.3751 9.59619 20.891 10.4958C20.4069 11.3953 20.1652 12.4054 20.1895 13.4266C20.2139 14.4479 20.5035 15.4452 21.0298 16.3207C26.7022 26.057 26.7178 38.0671 21.0618 47.8125C20.6457 48.4821 20.3683 49.2283 20.246 50.0072C20.1238 50.786 20.1591 51.5818 20.3501 52.3467C20.541 53.1117 20.8836 53.8305 21.3575 54.4606C21.8314 55.0907 22.427 55.6188 23.109 56.0144C23.791 56.41 24.5454 56.6649 25.3276 56.7634C26.1099 56.862 26.9039 56.8025 27.6627 56.5884C28.4215 56.3743 29.1296 56.0101 29.7449 55.5173C30.3603 55.0244 30.8705 54.4131 31.2452 53.7194C39.0174 40.3294 38.9972 23.7704 31.2041 10.3927C30.6708 9.44752 29.8867 8.6682 28.9384 8.14059C27.9901 7.61297 26.9131 7.35754 25.8288 7.40271ZM33.2206 10.8112C36.1363 16.6824 39.3158 24.6285 38.5423 34.5547C39.4863 35.4947 45.8829 49.7757 45.6831 53.4892C49.1286 45.9329 50.9837 37.1152 49.8652 25.9399C46.5613 20.028 37.1968 13.3058 33.2206 10.8112ZM4.94974 15.4954C-0.679883 15.7967 -1.78623 23.7961 3.07827 25.7415C11.7936 30.5959 18.0063 38.1298 19.4511 47.1014C23.7801 41.2197 24.0621 30.8953 23.4345 28.7838C19.2947 23.4125 14.2309 19.0893 7.5531 16.0181C6.74314 15.6255 5.84781 15.4388 4.94974 15.4831V15.4954Z" fill="#003974"/>
</g>
<defs>
<clipPath id="clip0_829_19">
<rect width="64" height="65" fill="white"/>
</clipPath>
</defs>
</svg>
