<svg width="100" height="83" viewBox="0 0 100 83" fill="none" xmlns="http://www.w3.org/2000/svg">
<g clip-path="url(#clip0_829_16)">
<path d="M50 48.8281C54.8286 48.8281 59.5489 47.3963 63.5637 44.7136C67.5786 42.031 70.7078 38.218 72.5557 33.7569C74.4035 29.2958 74.887 24.387 73.945 19.6511C73.0029 14.9153 70.6777 10.5651 67.2633 7.15072C63.849 3.73636 59.4988 1.41114 54.7629 0.46912C50.0271 -0.472902 45.1182 0.0105784 40.6571 1.85842C36.1961 3.70626 32.3831 6.83547 29.7004 10.8503C27.0178 14.8652 25.5859 19.5854 25.5859 24.4141C25.5932 30.8869 28.1677 37.0925 32.7446 41.6694C37.3216 46.2464 43.5272 48.8209 50 48.8281ZM40.1152 18.6738C39.5656 18.1242 39.2569 17.3788 39.2569 16.6016C39.2569 15.8243 39.5656 15.0789 40.1152 14.5293C40.6648 13.9797 41.4102 13.6709 42.1875 13.6709C42.9648 13.6709 43.7102 13.9797 44.2598 14.5293L50 20.2715L55.7402 14.5293C56.0124 14.2572 56.3354 14.0413 56.691 13.894C57.0466 13.7467 57.4276 13.6709 57.8125 13.6709C58.1974 13.6709 58.5784 13.7467 58.934 13.894C59.2896 14.0413 59.6126 14.2572 59.8848 14.5293C60.1569 14.8014 60.3728 15.1245 60.52 15.4801C60.6673 15.8356 60.7431 16.2167 60.7431 16.6016C60.7431 16.9864 60.6673 17.3675 60.52 17.7231C60.3728 18.0786 60.1569 18.4017 59.8848 18.6738L54.1426 24.4141L59.8848 30.1543C60.4344 30.7039 60.7431 31.4493 60.7431 32.2266C60.7431 33.0038 60.4344 33.7492 59.8848 34.2988C59.3352 34.8484 58.5898 35.1572 57.8125 35.1572C57.0352 35.1572 56.2898 34.8484 55.7402 34.2988L50 28.5567L44.2598 34.2988C43.7102 34.8484 42.9648 35.1572 42.1875 35.1572C41.4102 35.1572 40.6648 34.8484 40.1152 34.2988C39.5656 33.7492 39.2569 33.0038 39.2569 32.2266C39.2569 31.4493 39.5656 30.7039 40.1152 30.1543L45.8574 24.4141L40.1152 18.6738Z" fill="#003974"/>
<path d="M93.1641 17.5781H79.4922C80.012 19.8196 80.2741 22.1131 80.2734 24.4141C80.2734 41.1074 66.6934 54.6875 50 54.6875C33.3066 54.6875 19.7266 41.1074 19.7266 24.4141C19.7259 22.1131 19.988 19.8196 20.5078 17.5781H6.83594C5.02293 17.5781 3.28419 18.2983 2.0022 19.5803C0.720213 20.8623 0 22.6011 0 24.4141V75.1953C0 77.0083 0.720213 78.7471 2.0022 80.0291C3.28419 81.311 5.02293 82.0312 6.83594 82.0312H93.1641C94.9771 82.0313 96.7158 81.311 97.9978 80.0291C99.2798 78.7471 100 77.0083 100 75.1953V64.4531H87.3047C84.4557 64.4531 81.7234 63.3214 79.7088 61.3068C77.6943 59.2923 76.5625 56.5599 76.5625 53.7109C76.5625 50.8619 77.6943 48.1296 79.7088 46.1151C81.7234 44.1005 84.4557 42.9688 87.3047 42.9688H100V24.4141C100 22.6011 99.2798 20.8623 97.9978 19.5803C96.7158 18.2983 94.9771 17.5781 93.1641 17.5781Z" fill="#003974"/>
</g>
<defs>
<clipPath id="clip0_829_16">
<rect width="100" height="83" fill="white"/>
</clipPath>
</defs>
</svg>
